/* XPM */
static char *_4f21c2856f54fce8edfab978f45b2dalL4EXn6TKsHkNqo4[] = {
/* columns rows colors chars-per-pixel */
"32 32 9 1 ",
"  c #BF4830",
". c #F77622",
"X c #D77643",
"o c #FEAE34",
"O c #C28569",
"+ c #E4A672",
"@ c #E8B796",
"# c #EAD4AA",
"$ c #EBD4AB",
/* pixels */
"###+@####+@###+@###O@@#@@@@#####",
"##+@@####+@###+@###O@####@######",
"++@@##+++@@##+@@###O@@######++++",
"@@@##+@@@@#++@#@@##O@@######@@@@",
"@##++@####+@@####OO@@+++@@@@####",
"##+@@@#+++@###OOO@@@@@@@#####@@#",
"##+@@#+@@@##OO@@@@@#$@@$$++#####",
"++@###+####O@@@@@@@#@@+$$$@+++++",
"@@#+++###OO@@@++++$@@O@$@@@@@@@@",
"##+@@###O@@@@+##$$$O@@$@@OO#####",
"##+@##OO@#@@....@$O#.$@@@##@@###",
"@@+@#O@@@@......  ....@+@@@##@@@",
"++@##O@@+....X  ... .. @++@@@+++",
"@@#OO@@+...X   ..oX..X  @@+++@@@",
"@#O@@@@..XX   .o XX.X.  ##@@@###",
"##O@@@+.XX   ...XX XX   ########",
"@#O@#@..X ooo ..o. X.  ######@@#",
"##O@# .. o...o ..XXXX   OOO#####",
"##O@. .Xo..X...  XXXXX   @@O#@##",
"##O.  . oXXXX.XX  XXXX    @O####",
"OO@.  . XXXX XXX.X XXXX   #@OOOO",
"@@@X  .  .XXX    XX XXX   ##@@@@",
"+@@+X .. XXXX       XX   @+#@@@@",
"@@@+## X  XXXX          ++#@@@@@",
"+++###O@@@###+@#@+++++####@@@+++",
"######O@##+++@##+#####@@@@++++##",
"###OOO@##+@@@###+##+++++++######",
"OOO@@@###+@##+++@#+@@@######OOOO",
"@@@####++@##+@@@##+@##OOOOOO@@@@",
"####+++@@###+@#+++##OO@@@@@@@###",
"###+@@@##+++@#+@@##O@@@#@@@###@#",
"###+####+@@@##+####O@@###@@@####"
};
