/* XPM */
static char *a351c46bd41e4ff6eba1da25df589689DmexJPx2CixfTJYz[] = {
/* columns rows colors chars-per-pixel */
"32 32 8 1 ",
"  c #252B43",
". c #C28569",
"X c #E4A672",
"o c #8B9BB5",
"O c #E8B796",
"+ c #EAD4AA",
"@ c #C0CCDC",
"# c #ECF0F1",
/* pixels */
"+++XO++++XO+++XO+++.OO+OOOO+++++",
"++XOO++++XO+++XO+++.O++++O++++++",
"XXOO++X#################++++XXXX",
"OOO++X@@@@@@@@@@@@@@@@@@#+++OOOO",
"O++XXO@@@@@@@@@@@@@@@@@@#OOO++++",
"++XOOO@@@@@@@@@@@@@@@@@@#++++OO+",
"++XOO+@@@@@@@@@@@@@@@@@@#XX+++++",
"XXO+++@@@ @@@@@@@@@@@@@@#OOXXXXX",
"OO+XXX@@@ @@@@@@@@@@@@@@#++OOOOO",
"++XOO+@@@ @@@@@@@@@@@@@@#+++++++",
"++XO++@@@@@@@@@@@@@@@@@@#++OO+++",
"OOXO+.@@@@@@@@@@@@@@@@@@#OO++OOO",
"XXO++.oooooooooooooooooooXOOOXXX",
"OO+..O###################OXXXOOO",
"O+.OOO@@@@@@@@@@@@@@@@@@#+OOO+++",
"++.OOO@@@@@@@@@@@@@@@@@@#+++++++",
"O+.O+O@@@ @@@@@@@@@@@@@@#++++OO+",
"++.O+O@@@ @@@@@@@@@@@@@@#..+++++",
"++.OOO@@@ @@@@@@@@@@@@@@#OO.+O++",
"++.OOO@@@ @@@@@@@@@@@@@@#+O.++++",
"..OOXX@@@ @@@@@@@@@@@@@@#++O....",
"OOOX++@@@@@@@@@@@@@@@@@@#X++OOOO",
"XOOX+O@@@@@@@@@@@@@@@@@@#OX+OOOO",
"OOOX++@@@@@@@@@@@@@@@@@@#X+OOOOO",
"XXX+++@@@@@@@@@@@@@@@@@@#+OOOXXX",
"++++++@@@@@@@@@@@@@@@@@@#OXXXX++",
"+++...@@@@@@@@@@@@@@@@@@#X++++++",
"...OOO@@@@@@@@@@@@@@@@@@#+++....",
"OOO++++                 ....OOOO",
"++++XXX                 OOOOO+++",
"+++XOOO++XXXO+XOO++.OOO+OOO+++O+",
"+++X++++XOOO++X++++.OO+++OOO++++"
};
