/* XPM */
static char *db606edc974e4cceec481a7dd08b5ed5Es4omVqsaMVRqr3a[] = {
/* columns rows colors chars-per-pixel */
"32 32 100 2 ",
"   c #060708",
".  c #070809",
"X  c #0B0A0B",
"o  c #0A0B0B",
"O  c #0B0B0B",
"+  c #0A0B0C",
"@  c #0B0C0C",
"#  c #0D0D0C",
"$  c #0C0C0D",
"%  c gray5",
"&  c #0C0E0E",
"*  c #100F0F",
"=  c #10100F",
"-  c #0F0F10",
";  c #0F1010",
":  c #101010",
">  c #121213",
",  c #131313",
"<  c #151413",
"1  c #131314",
"2  c #131414",
"3  c #151515",
"4  c #171515",
"5  c gray9",
"6  c #1C1715",
"7  c #1B1916",
"8  c #191919",
"9  c #1E1A18",
"0  c #1E1C19",
"q  c #1B1B1C",
"w  c #211F1C",
"e  c #211F1F",
"r  c #241F1D",
"t  c #22201D",
"y  c #2C2522",
"u  c #2E2B27",
"i  c #2C2A28",
"p  c #332A27",
"a  c #342D2A",
"s  c #33302B",
"d  c #38302B",
"f  c #3A302B",
"g  c #3C332E",
"h  c #3B372E",
"j  c #3A362F",
"k  c #3D342E",
"l  c #433A34",
"z  c #443A35",
"x  c #423E38",
"c  c #454038",
"v  c #454138",
"b  c #4B463D",
"n  c #4F443E",
"m  c #B7353C",
"M  c #B7353D",
"N  c #B9333B",
"B  c #BC333B",
"V  c #B9343B",
"C  c #BC343B",
"Z  c #BB343C",
"A  c #B8373E",
"S  c #F2B83D",
"D  c #F5BB3E",
"F  c #F5BC3F",
"G  c #F7BD3E",
"H  c #F2B940",
"J  c #F6BD40",
"K  c #F6BC41",
"L  c #F9BE40",
"P  c #C28569",
"I  c #E3A673",
"U  c #E4A672",
"Y  c #446694",
"T  c #446795",
"R  c #466997",
"E  c #476A98",
"W  c #486A98",
"Q  c #496B99",
"!  c #D7BB92",
"~  c #D8BC92",
"^  c #DBBF93",
"/  c #DBBF95",
"(  c #DDBF94",
")  c #DCBF95",
"_  c #E8B796",
"`  c #DCC094",
"'  c #DCC095",
"]  c #DEC095",
"[  c #DDC196",
"{  c #DFC296",
"}  c #DFC297",
"|  c #E0C297",
" . c #E0C397",
".. c #E9D4AA",
"X. c #EAD4AA",
"o. c #F1F2F1",
"O. c #F2F3F3",
"+. c #F4F4F4",
"@. c #F7F7F6",
"#. c #F9F9F9",
/* pixels */
"X.X.X.U _ X.X.X.> [ [ G L [ ' ' [ ' L ' [ d X._ _ _ _ X.X.X.X.X.",
"X.X.U _ _ X.X.s [ / G [ ' Z A Z Z 2 2 4 2 4 q x X._ ....X.X.X.X.",
"U U _ _ X.X.y  .[ [ [ N Z X X @ @ [ [ K K K G [ t v ....U I I I ",
"_ _ _ X.X.U r [ [ Z Z 1 1 ` ^ H K S K H K H S K H ' x .._ _ _ _ ",
"_ X.X.I U k ) [ m 1 > / K S H ' ' ' / ^ / ! ^ / H S ! n X.X.X.X.",
"X.X.I _ _ X ^ X   ) G G ' ^ ) ' ` ' + +   X [ [ ' S S / l _ _ ..",
"X.X.I _ _ > > [ K K ) ) / / ` = ; ; ; 1 % 4 > % ! / S ^ h X...X.",
"I I _ X.X.% [ L ) [  .[ % % % % @ @ } - % % % % % @ ] X I U U I ",
"_ _ X.U 8 [ K ) ) ) > 4 < 2 4 > > / / ^ 2 2 4 2 4 2 > _ _ _ _ _ ",
"X.X.U _ * G ) ^ ^ X X X X # @ X ^ ^ / ^ ` @ o @ @ @ % % X.X.X.X.",
"X.X.U p [  .)  .> > * > > = > = ) )  .^ [ > ; ; 1 0 ..1 _ X.X.X.",
"_ _ U 9 )  .) [ = > % > = > % @.$ ) ^ ` [ o.; ' 1 g _ ..X._ _ _ ",
"U U _ t ^  .[ * = > = = > % +.> G [  .) ' @ G #.X l _ _ _ I U U ",
"_ _ X.< ^ ] X [ % % X % [ X +.X + [ ) / ` X . @.l _ U U I _ _ _ ",
"_ X.P _ 5 ) ^ [ > > ^ > ] ! ! +.O.^ ^ ~ ` o.o.^ v X._ _ _ X.X.X.",
"X.X.P _ _ < % [ % ] [ % [ ^ ] ` ^ ) ) ^ ` ` ] _ v X.X.X.X.X.X.X.",
"_ ..P _ .._ U w 5 ) ) / / ^ ' [ ^ ) ) * ] ^ ^ ^ b X...X.X._ _ X.",
"X...P _ .._ U X...1  .} ' ` ` [ ) )  .) [ ] ^ p P P P ..X.X.X.X.",
"X.X.P _ _ _ U X.....0 w 2 / ' ' ) [ ) ) [ t z _ _ _ _ P X._ X.X.",
"X.X.P _ _ _ U X._ ..P _ % @ @ @ X X X $ h X.X.X....._ P X.X.X.X.",
"P P _ _ U U X.X.X.X.P a [ % Z Z > N Z 1 I I X.X.X.X.X._ P P P P ",
"_ _ _ U X.X.X.X._ X.P w [ 2 m Z Z V m m d _ U I U I X.X._ _ _ _ ",
"U _ _ U X._ X.X.X.X.e ) [ ; V V m @ Z Z = c _ _ _ _ I X._ _ _ _ ",
"_ _ _ U X.X.X.P P P > ) ; Z Z m Z m Z m m > q I U U X._ _ _ _ _ ",
"U U U X.X.X.P _ _ 0 +  .% N m Z N % C V N @ [ i X.X._ _ _ U U U ",
"X.X.X.X.X.X.P _ f ^ [ [ [ 1 Z N Z Z Z > > ^ / y _ _ U U U U X.X.",
"X.X.X.P P P _ X.> [ ^ ^ / X % X @ . R Y R X X I U U X.X.X.X.X.X.",
"P P P _ _ _ X.X.X.4 [ [ [ - R R E E R R R % ....X.X.X.X.P P P P ",
"_ _ _ X.X.X.X.U U _ w * @ R R R = @ R R 7 ..P P P P P P _ _ _ _ ",
"X.X.X.X.U U U _ _ X.X.w Q R R 2 I I 2 ' 4 1 1 _ _ _ _ _ _ X.X.X.",
"X.X.X.U _ _ _ X.X.U U 5 [ [ X _ _ X.o ` / / ^ u _ _ _ X.X.X._ X.",
"X.X.X.U X.X.X.X.U _ _ 9 ^ ` ` = X.X.> S K H S G d _ _ _ X.X.X.X."
};
