/* XPM */
static char *_317ff24ba504d0eee1db34b0e2f49e4QelDCYeN8IKAgU01[] = {
/* columns rows colors chars-per-pixel */
"32 32 98 2 ",
"   c #060708",
".  c #070809",
"X  c #0B0B0B",
"o  c #090A0C",
"O  c #0B0C0C",
"+  c #0C0C0C",
"@  c #0C0E0E",
"#  c #0E0E0E",
"$  c #100F0F",
"%  c #10100F",
"&  c #0C0E10",
"*  c #0F1010",
"=  c #101010",
"-  c #111212",
";  c gray7",
":  c #121313",
">  c #161313",
",  c #121314",
"<  c gray8",
"1  c #161617",
"2  c gray9",
"3  c #191615",
"4  c #1C1817",
"5  c #191919",
"6  c #1E1A18",
"7  c #1E1C1A",
"8  c #1F1D1A",
"9  c #1B1B1C",
"0  c #201E1D",
"q  c #22201E",
"w  c #25221E",
"e  c #2C2A26",
"r  c #2E2B27",
"t  c #2C2928",
"y  c #302A27",
"u  c #332B26",
"i  c #342D2A",
"p  c #33302B",
"a  c #36322C",
"s  c #38302B",
"d  c #3A302B",
"f  c #39312D",
"g  c #3C332E",
"h  c #3D342E",
"j  c #3E3631",
"k  c #3F3631",
"l  c #42372F",
"z  c #45382F",
"x  c #413731",
"c  c #453931",
"v  c #454038",
"b  c #4E4138",
"n  c #4B463D",
"m  c #B7363D",
"M  c #BA333B",
"N  c #BB333B",
"B  c #BC333B",
"V  c #B9343B",
"C  c #BB343C",
"Z  c #B8363D",
"A  c #B9373E",
"S  c #F2B83D",
"D  c #F5BB3E",
"F  c #F7BD3E",
"G  c #F0B841",
"H  c #F1B841",
"J  c #F2BA41",
"K  c #F4BB42",
"L  c #F6BD40",
"P  c #F9BE40",
"I  c #C28569",
"U  c #E3A673",
"Y  c #E4A672",
"T  c #446694",
"R  c #466895",
"E  c #466996",
"W  c #476A98",
"Q  c #496B99",
"!  c #D7BB92",
"~  c #D8BC92",
"^  c #D9BC93",
"/  c #DABE93",
"(  c #DBBE94",
")  c #DCBF94",
"_  c #E8B796",
"`  c #DCC094",
"'  c #DEC095",
"]  c #DFC297",
"[  c #E0C297",
"{  c #E0C397",
"}  c #E9D4AA",
"|  c #E9D4AB",
" . c #EAD4AA",
".. c #F1F2F1",
"X. c #F2F3F3",
"o. c #F4F4F4",
"O. c #F7F7F6",
"+. c #F9F9F9",
/* pixels */
" . . .Y _  . . .| U g ` ` P ` ` [ ) ` P L [ ` > _ _ _  . . . . .",
" . .Y _ _  . . .x 9 < < 1 < < A A A A ) ( F ) ) p _ } }  . . . .",
"Y Y _ _  . .z 0 [ F F F H { ` O # o # M N [ [ ` [ e } } Y Y Y Y ",
"_ _ _  . .x / H L K H H H P L H H ) ) & < m A / ` e } } _ _ _ _ ",
"_  . .Y b ! K H [ / / ( ) ` ( ( ` H H L ) ; , A ` ` d _  . . . .",
" . .Y k / S D / ` / . X + . ( ` ` ` ) ( K F ( X . _ X }  ._ _  .",
" . .Y f / H / ! # < , $ , & & ; ; ( ( ( ) ` L H ` < $ }  . . . .",
"Y Y _  .O ( # # # o # # # [ O # # + # # ` [ ) [ P ` $ Y Y Y Y Y ",
"_ _  .Y U ; < < ; < ; < ( ) ) , < < < ; , ; ` ` ] L ` 5 _ _ _ _ ",
" . .Y _ # # X # X # # / ( ) ) ) X X # X # X X / ` ` K & |  . . .",
" . .Y _ ;  .4 ; ; ; ; ( ) ) ` ( $ ; ; ; ; & ; ; ] ] ] ] y  . . .",
"_ _ Y _  .I h ; / # o.` ) ) ) ; o.# ; % ; $ ; # ` ` ] ( 8 _ _ _ ",
"Y Y _  . .I k # +.F # ) ) [ ` L < o.$ % ; # ; # @ ] ] ` 6 U U Y ",
"_ _  .I I _ _ l o.  # ) ) ) ) o X X.# ` # X # # ] @ ` ` 3 _ _ _ ",
"_  .I _ _ _ _ c ) X.X.) ^ ) ( X.o.^ / / : ` ; ; ` ` _ 2 _  .| | ",
" . .I _ _ _ Y v ` ) / ) ) ) ` ) ) ) ) ) @ ` ` @ [ @ <  . . . .| ",
"_  .I _  ._ Y n ( ( ) ) & ) ) ) ) ) / ) ` [ ) 5 6 |  . . ._ _  .",
" . .I _  ._ Y  .k ) ) [ ) [ ) ) ` [ ) ) ` [ ; I I I I  . . . . .",
" . .I _ _ _ Y  . .v 6 ) ) ` ) ) ) ) ) , q q _ _ _ _ _ I  ._  . .",
" . .I _ _ _ Y  ._  .I d $ o X o & o # $  . . . .| | _ I  . . . .",
"I I _ _ Y Y  . . . .I _ O A A ; M A ; ( u U  . . . . ._ I I I I ",
"_ _ _ Y  . . . ._  .I p N m A M A m < ` 0 _ Y Y Y Y  . ._ _ _ _ ",
"Y _ _ Y  ._ | | | | f # N m O N N N # [ ) q _ _ _ _ Y  ._ _ _ _ ",
"_ _ _ Y  . .} I I 0 ; A m N A m N m m O ) ; Y Y Y Y  ._ _ _ _ _ ",
"Y Y Y  . . .I _ e ` # A N N # N N N B # [ X 0  . . ._ _ _ Y Y Y ",
" . . . . . .I _ e ( ( ; ; A A m m m ; ` ` [ ( i _ _ Y Y Y Y  . .",
" . . .I I I _  .| . X E T T X X X X # ( ( ` ( : Y Y  . . . . . .",
"I I I _ _ _  . .| Y # Q E Q T W W E % ( [ [ :  . . . . .I I I I ",
"_ _ _  . . . .Y Y _  .4 E E # # E E E # $ 4 I I I I I I _ _ _ _ ",
" . . . .Y Y Y _ _ , < < ) ; | Y , Q E Q 0 I _ _ _ _ _ _ _  . . .",
" . . .Y _ _ _  .t ) ` ` ) o Y _ _ X / ` 4 _ _  ._ _ _  . . ._  .",
" . . .Y  . . .s P H H H S ; Y | ; ( ) ) 0 _  . . ._ _ _  . . . ."
};
