/* XPM */
static char *_b335646790945ef97ea0ad9c81679aaGjEPB9FCc0knMHOP[] = {
/* columns rows colors chars-per-pixel */
"32 32 180 2 ",
"   c #253F3E",
".  c #462D35",
"X  c #27433E",
"o  c #784439",
"O  c #4F603F",
"+  c #252B43",
"@  c #2C5A46",
"#  c #4B5742",
"$  c #6F534B",
"%  c #596240",
"&  c #596B41",
"*  c #596B45",
"=  c #407245",
"-  c #407446",
";  c #407750",
":  c #5E725C",
">  c #687249",
",  c #657876",
"<  c #873637",
"1  c #8F3336",
"2  c #8E3436",
"3  c #913135",
"4  c #A22633",
"5  c #9F4838",
"6  c #AA4234",
"7  c #C35E2F",
"8  c #D3522A",
"9  c #D3552A",
"0  c #D8552C",
"q  c #DA542D",
"w  c #C25738",
"e  c #EC5A34",
"r  c #F05C36",
"t  c #C56A31",
"y  c #DB7335",
"u  c #E36327",
"i  c #E43B44",
"p  c #E43E44",
"a  c #856348",
"s  c #87654A",
"d  c #AA6B4C",
"f  c #927675",
"g  c #AC7861",
"h  c #E6444B",
"j  c #E7484E",
"k  c #E84C52",
"l  c #E95157",
"z  c #E9575A",
"x  c #C36246",
"c  c #C67141",
"v  c #D77441",
"b  c #C96F51",
"n  c #E7655C",
"m  c #E6796A",
"M  c #638E43",
"N  c #678E43",
"B  c #518062",
"V  c #5C8270",
"C  c #658B77",
"Z  c #C88637",
"A  c #D99436",
"S  c #F7A633",
"D  c #F0A034",
"F  c #FFB134",
"G  c #A9895E",
"H  c #968F7A",
"J  c #AB9860",
"K  c #BF9264",
"L  c #B79B63",
"P  c #BD937A",
"I  c #DF9147",
"U  c #C28B5E",
"Y  c #D98355",
"T  c #DA8A5C",
"R  c #D5915E",
"E  c #DE915E",
"W  c #C28569",
"Q  c #C09264",
"!  c #C49466",
"~  c #D19F6B",
"^  c #D59E69",
"/  c #D79F6C",
"(  c #C28972",
")  c #D38C77",
"_  c #E29765",
"`  c #E29D6E",
"'  c #E78674",
"]  c #E88372",
"[  c #E4A671",
"{  c #E4A672",
"}  c #E2A87A",
"|  c #907C83",
" . c #6E8584",
".. c #76878C",
"X. c #778A8E",
"o. c #7D8C8F",
"O. c #7B998F",
"+. c #7E8F91",
"@. c #B18082",
"#. c #BF8583",
"$. c #ABA985",
"%. c #ABAB85",
"&. c #ADAF86",
"*. c #AEB586",
"=. c #AFB586",
"-. c #AFB886",
";. c #B1BD86",
":. c #A3B298",
">. c #9C98A3",
",. c #9D9EAE",
"<. c #8B9BB5",
"1. c #BF9EA6",
"2. c #8EA0A6",
"3. c #8FA8A4",
"4. c #9CA4B4",
"5. c #9AABB3",
"6. c #9EAEB8",
"7. c #A2B2BA",
"8. c #AEB3BF",
"9. c #C38D8B",
"0. c #CA9E82",
"q. c #D69C87",
"w. c #DC9B98",
"e. c #DD9B98",
"r. c #DF9F9C",
"t. c #E28F83",
"y. c #E2968A",
"u. c #C1A286",
"i. c #C1A09A",
"p. c #E7A385",
"a. c #E8B796",
"s. c #C39FA4",
"d. c #DEA6A4",
"f. c #D6B2A5",
"g. c #D8B5A2",
"h. c #DBB2AB",
"j. c #D7B2B0",
"k. c #D8B2B0",
"l. c #D4B8B7",
"z. c #DBBFB3",
"x. c #D4BABB",
"c. c #B4C887",
"v. c #B6D087",
"b. c #DBC49E",
"n. c #D4C2BF",
"m. c #DED2BC",
"M. c #EAD4AA",
"N. c #E0C1B7",
"B. c #E7CAB8",
"V. c #E9CCBA",
"C. c #ABBDC1",
"Z. c #ABBEC4",
"A. c #BFB6C2",
"S. c #C9BDC2",
"D. c #B5C5CF",
"F. c #B8C1CC",
"G. c #BBC7D6",
"H. c #BDC9D8",
"J. c #BECBDA",
"K. c #BFCBDB",
"L. c #CED1CB",
"P. c #DAD1C0",
"I. c #C0C6D4",
"U. c #C7C9D3",
"Y. c #C0CAD7",
"T. c #C4C9D5",
"R. c #C5CDD7",
"E. c #C8C8D1",
"W. c #C9CED3",
"Q. c #C1CBDA",
"!. c #C1CBDB",
"~. c #C4CAD8",
"^. c #C3CDD9",
"/. c #C4CDD8",
"(. c #C4CDD9",
"). c #C0CCDC",
"_. c #EADCD3",
"`. c #DEE2E2",
"'. c #E4EAED",
"]. c #ECF0F1",
/* pixels */
"M.M.M.{ a.M.M.M.M.{ a.M.M.M.{ a.M.M.M.W a.a.M.a.a.a.a.M.M.M.M.M.",
"M.M.{ a.a.M.M.M.M.{ a.M.M.M.{ a.M.M.M.W a.M.M.M.M.a.M.M.M.M.M.M.",
"{ { a.a.M.M.{ ].].].].].].].].].].].].].].].].].M.M.M.M.{ { { { ",
"a.a.a.M.M.{ ).).).).).).).).).).).).).).).).).).].M.M.M.a.a.a.a.",
"a.M.M.{ { a.).).).).).).).).).).).).).).).).).).].a.a.a.M.M.M.M.",
"M.M.{ a.a.a.).).).).).).).).).).).).).).).).).).].M.M.M.M.a.a.M.",
"M.M.{ a.a.M.).).).).).).).).).).).).).).).).).).].{ { M.M.M.M.].",
"{ { a.M.M.M.).).).+ ).).).).).).).).).).).).).).].a.a.{ { { ].).",
"a.a.M.{ { { ).).).+ ).).).).).).).).).).).).).).].M.M.a.a.].U.E.",
"M.M.{ a.a.M.).).).+ ).).).).).).).).).).).).).).].M.M.M.].).^.).",
"M.M.{ a.M.M.).).).).).).).).).).).).).).).).K.K.].M.M.].E.R.).).",
"a.a.{ a.M.W ).).).).).).).).).).).).).).).).K.K.].a.].W.^.).Q.~.",
"{ { a.M.M.W <.<.<.<.<.<.<.<.<.<.<.<.<.<.>.,.4.<.<.].E.Q.).).).T.",
"a.a.M.W W a.].].].].].].].].].].].n.'.].].C.L.].].T.~.!.).).).Q.",
"a.M.W a.a.a.).).).).).).).).).).^., 7.U.K.3.5.K.].(.).Q.).Q.^.).",
"M.M.W a.a.a.).).).).).).).).).).!. .Z.(.K.O.2.^.].(.).).).^.^.).",
"a.M.W a.M.a.x.m j.).K.^.).).).K.6.@ C G.D.; : J.].J.J.).).^.^.K.",
"M.M.W a.M.a.r.h p t.h.(.).).).J...$ H F.3.X ; 5.].H.^.).).(.^.).",
"M.M.W a.a.a.e.k ' p.l d.).).J.J...0.V.E.V g b.O.].J.J.).).).).).",
"M.M.W a.a.a.k.l n ] j w.).S.l.T a P B.f.: g b.+.].^.^.J.).).).).",
"W W a.a.{ { (.y.p h z x.) y y Y s . # c > X - X.].(.).Q.).^.K.).",
"a.a.a.{ M.M.].].].].]._.[ { } { / Q ! { ~ K #.`.].).).).).).^.].",
"{ a.a.{ M.a.).).Q.Q.J.:.%.*.-.c.c.%.%.;.v.*.&.C.].Q.).).^.T.].n.",
"a.a.a.{ M.M.).).K.Q.Y.I r e 9 9 q r r q 8 u y P.].!.^.K.Q.].n.a.",
"{ { { M.M.M.).s.b x 4 4 6 D F F A t 7 S D Z o >.].^.).^.].g.} { ",
"M.M.M.M.M.M.1.w 6 x 1 3 < 5 O # M N & & * % % C.].!.K.].g.{ M.M.",
"M.M.M.W W W 9.b b 6 3 2 < d J ^ R K _ L G U ` I.'.!.].P.M.M.M.M.",
"W W W a.a.a.A.#.@.| | f d R ^ T E E E E E E q.Q.].].m.M.W W W W ",
"a.a.a.M.M.M.M.+ + + + + + + + + + + + + + + + + W i.( W a.a.a.a.",
"M.M.M.M.{ { { + + + + + + + + + + + + + + + + + a.a.a.a.a.M.M.M.",
"M.M.M.{ a.a.a.M.M.{ { { a.M.{ a.a.M.M.K a.a.a.M.a.a.a.M.M.M.a.M.",
"M.M.M.{ M.M.M.M.{ a.a.a.M.M.{ M.M.M.M.g a.a.M.M.M.a.a.a.M.M.M.M."
};
